# xmcd
#
# Track frame offsets:
#	150
#	2202
#	21776
#	24749
#	25352
#	49284
#	53717
#	61367
#	62312
#	86772
#	93372
#	97117
#	121235
#	134162
#	141357
#	158682
#	163818
#	165465
#	169174
#	201143
#	213486
#	230192
#	234687
#	235620
#	246436
#	251089
#	258471
#	269049
#	293758
#	320892
#	325659
#
# Disc length: 4386 seconds
#
# Revision: 1
# Processed by: cddbd v1.5.1PL2 Copyright (c) Steve Scherf et al.
# Submitted via: audiograbber 1.83.01
#
DISCID=d311201f
DTITLE=Various Artist - Official KFAT CD Vol 1
DYEAR=1980
DGENRE=Comedy
TTITLE0=KFAT Radio Station - KFAT Intro
TTITLE1=Chuck Wagon And The Wheels - Red Hot Women And Ice Cold Beer
TTITLE2=KFAT Radio Station - Meatley's Wild Moustache Ride
TTITLE3=KFAT Radio Station - Not This Record
TTITLE4=KFAT Radio Station - Moose Turd Pie
TTITLE5=KFAT Radio Station - A Few Predictions On Food
TTITLE6=National Lampoon - Monolithic Oil
TTITLE7=KFAT Radio Station - Country Music News Prediction
TTITLE8=Larry Hasper - Salinas
TTITLE9=KFAT Radio Station - Editoral From The De Lampra Institute Of Editorial
TTITLE9=Reply
TTITLE10=KFAT Radio Station - IRS Poll Tax Ad
TTITLE11=John Hartford - Golden Globe Awards
TTITLE12=Side Saddle - Shady Grove
TTITLE13=KFAT Radio Station - Idi Amin Hot Tubs
TTITLE14=KFAT Radio Station - If My Baby Leave Me
TTITLE15=KFAT Radio Station - Aunt Sophie's Natural Jams N' Jellies
TTITLE16=KFAT Radio Station - KFAT The Peoples' Choice
TTITLE17=KFAT Radio Station - The FATS Of Life KFAT Intro
TTITLE18=Peter Rowan and Flaco Skinny Jimenez - Free Mexican Air Force
TTITLE19=KFAT Radio Station - Saddle On Out To The Coop Brother Cluckers
TTITLE20=KFAT Radio Station - Ain't Nobody Here But Us Chickens
TTITLE21=KFAT Radio Station - Foundation For The Tragically Hip
TTITLE22=KFAT Radio Station - Both Kinds Of Music
TTITLE23=Scott Bish - Rodeo Song
TTITLE24=KFAT Radio Station - The New 1983 Delorian Snowmobile
TTITLE25=KFAT Radio Station - KFAT Editorial With Jack Daniels
TTITLE26=Steven Terrel - Picnic Time For Potato Heads
TTITLE27=Livewire Qoir - Palm Springs Jump
TTITLE28=KFAT Radio Station - Dance With Me
TTITLE29=KFAT Radio Station - Cutthroat Electronics
TTITLE30=KFAT Radio Station - KFAT Outro
EXTD=
EXTT0=
EXTT1=
EXTT2=
EXTT3=
EXTT4=
EXTT5=
EXTT6=
EXTT7=
EXTT8=
EXTT9=
EXTT10=
EXTT11=
EXTT12=
EXTT13=
EXTT14=
EXTT15=
EXTT16=
EXTT17=
EXTT18=
EXTT19=
EXTT20=
EXTT21=
EXTT22=
EXTT23=
EXTT24=
EXTT25=
EXTT26=
EXTT27=
EXTT28=
EXTT29=
EXTT30=
PLAYORDER=
